<svg id="logosvg" width="65" height="56" viewBox="0 0 65 56" fill="none" xmlns="http://www.w3.org/2000/svg">
<path d="M14.5716 40.0767L14.8876 46.2993C13.1649 47.0713 11.2502 47.458 9.14091 47.458C3.65558 47.458 0.914246 45.034 0.914246 40.182V8.33268H9.14091V37.282C9.14091 38.5127 9.37691 39.3647 9.85158 39.8393C10.3262 40.314 11.0036 40.5513 11.8822 40.5513C12.5849 40.5513 13.4809 40.3927 14.5716 40.0767Z" fill="white"/>
<path d="M51.9329 25.0561L44.1383 30.6627L55.8209 29.2827L51.9329 25.0561ZM46.9289 42.4227L48.4823 44.3067L48.6236 39.6254L46.9289 42.4227ZM44.0449 47.1814L43.7023 46.9734L46.4369 42.4587L43.5823 38.9974C43.5356 38.9401 43.5236 38.8614 43.5516 38.7934C43.5796 38.7241 43.6436 38.6774 43.7169 38.6694L58.2663 37.2121C59.4663 34.1801 60.0796 30.9761 60.0916 27.6867L54.7236 23.0494L52.2623 24.8201L56.3809 29.3001C56.4329 29.3561 56.4476 29.4347 56.4223 29.5054C56.3956 29.5761 56.3316 29.6267 56.2569 29.6361L43.4143 31.1521C43.3236 31.1627 43.2383 31.1107 43.2049 31.0267C43.1716 30.9401 43.1996 30.8441 43.2743 30.7907L51.6596 24.7587L47.6849 20.4374L40.6663 16.5454C40.5849 16.5001 40.5449 16.4054 40.5716 16.3147L42.8836 8.2014C42.9023 8.13873 42.9503 8.08673 43.0129 8.06673C43.0756 8.0454 43.1436 8.05606 43.1969 8.09606L52.0449 14.7481L58.4503 16.3147L58.3543 16.7041L51.9089 15.1281C51.8823 15.1214 51.8583 15.1094 51.8356 15.0934L43.1889 8.59206L41.0009 16.2707L47.9076 20.1027C47.9276 20.1134 47.9436 20.1267 47.9596 20.1414L51.9876 24.5241L54.6169 22.6321C54.6929 22.5787 54.7956 22.5827 54.8663 22.6414L60.4236 27.4427C60.4676 27.4801 60.4929 27.5361 60.4929 27.5947C60.4929 31.0094 59.8529 34.3334 58.5929 37.4734C58.5649 37.5427 58.5009 37.5921 58.4263 37.5987L44.1303 39.0307L46.6569 42.0947L48.6756 38.7654C48.7223 38.6881 48.8183 38.6507 48.9036 38.6774C48.9903 38.7014 49.0503 38.7841 49.0476 38.8747L48.8676 44.8534C48.8649 44.9361 48.8103 45.0094 48.7316 45.0361C48.6543 45.0641 48.5649 45.0387 48.5116 44.9734L46.7076 42.7867L44.0449 47.1814Z" fill="white"/>
<path d="M33.9557 54.1316C30.7317 54.1316 27.5784 53.5596 24.5877 52.4316C24.517 52.4049 24.4677 52.3409 24.4597 52.2663L23.7637 45.9929L9.86238 38.1476C9.80638 38.1143 9.76771 38.0583 9.76104 37.9929C9.75438 37.9303 9.77838 37.8663 9.82638 37.8236L16.7584 31.5716L17.0264 31.8703L10.3024 37.9343L24.0504 45.6956C24.1064 45.7263 24.1437 45.7836 24.1504 45.8476L24.845 52.0996C27.733 53.1729 30.7717 53.7209 33.881 53.7303L37.9264 50.1889L34.441 46.8783C34.369 46.8103 34.357 46.6996 34.4144 46.6169C34.4717 46.5369 34.581 46.5076 34.669 46.5529L44.6197 51.5129L48.493 44.7476C48.5424 44.6596 48.649 44.6223 48.7397 44.6596L52.2917 46.0623L53.813 35.9316L54.2104 35.9916L52.6517 46.3716C52.6437 46.4316 52.6064 46.4849 52.5544 46.5156C52.501 46.5463 52.4357 46.5489 52.3797 46.5276L48.7544 45.0983L44.873 51.8769C44.8197 51.9689 44.7037 52.0023 44.6104 51.9556L35.689 47.5103L38.3624 50.0489C38.4024 50.0889 38.4264 50.1423 38.425 50.1996C38.4237 50.2556 38.3984 50.3089 38.357 50.3463L34.089 54.0823C34.0517 54.1143 34.005 54.1316 33.9557 54.1316Z" fill="white"/>
<path d="M24.5586 52.375C24.4892 52.375 24.4239 52.3403 24.3879 52.279C24.3452 52.211 24.3479 52.1243 24.3946 52.0577L30.1612 43.991L20.2732 42.7697L20.3226 42.371L30.5452 43.6337C30.6146 43.643 30.6746 43.6883 30.7039 43.7523C30.7319 43.8177 30.7252 43.8937 30.6839 43.951L24.9946 51.9083L38.1959 49.9963C38.2212 49.9923 38.2466 49.9937 38.2706 50.0003L44.5466 51.4963C47.4039 50.2283 49.9892 48.4723 52.2319 46.2777L48.6852 30.951C48.6652 30.863 48.7039 30.7737 48.7812 30.731C48.8599 30.6857 48.9572 30.699 49.0212 30.763L53.4839 35.1603L49.6692 25.371L50.0426 25.2257L54.1986 35.8883C54.2332 35.9763 54.2012 36.0763 54.1226 36.1283C54.0426 36.1803 53.9386 36.171 53.8706 36.1043L49.2319 31.5337L52.6492 46.295C52.6652 46.3643 52.6439 46.435 52.5946 46.4843C50.2812 48.767 47.6079 50.5857 44.6466 51.891C44.6066 51.907 44.5612 51.9123 44.5186 51.903L38.2146 50.399L24.5866 52.3723C24.5772 52.375 24.5679 52.375 24.5586 52.375Z" fill="white"/>
<path d="M15.3164 46.3335L10.9457 32.8255C10.9284 32.7735 10.9324 32.7188 10.9577 32.6708L13.9151 26.9788L18.0804 19.3562L19.6991 13.5722L15.3071 8.9935C15.2311 8.91483 15.2337 8.78816 15.3111 8.71083C17.6537 6.3975 20.3657 4.56149 23.3724 3.25216C23.4444 3.22016 23.5311 3.23616 23.5897 3.29083L28.5177 7.9175L33.4311 5.03483C33.4977 4.99616 33.5791 4.9975 33.6431 5.04016L37.9777 7.88683L42.9084 8.05083L43.7644 3.19216C43.7777 3.11083 43.8404 3.04683 43.9204 3.0295C43.9991 3.01216 44.0817 3.04549 44.1271 3.11349L52.1217 14.8202L51.7911 15.0455L44.0737 3.74683L43.2737 8.29216C43.2564 8.39083 43.1697 8.46416 43.0697 8.4575L37.9071 8.2855C37.8711 8.28416 37.8351 8.2735 37.8031 8.25216L33.5271 5.44416L28.5911 8.34016C28.5137 8.38549 28.4164 8.37483 28.3524 8.3135L23.4111 3.67349C20.5591 4.93216 17.9777 6.67616 15.7337 8.85883L20.0671 13.3762C20.1177 13.4268 20.1351 13.5015 20.1164 13.5695L18.4604 19.4855C18.4551 19.5002 18.4511 19.5148 18.4431 19.5282L14.2684 27.1682L11.3524 32.7815L15.6977 46.2095L15.3164 46.3335Z" fill="white"/>
<path d="M27.1804 39.2436L26.4911 40.7476L27.9391 40.3689L27.1804 39.2436ZM28.5897 40.6143L30.5351 43.4969L34.0671 39.1863L28.5897 40.6143ZM21.4231 42.4849L24.1217 44.9529L25.7737 41.3489L21.4231 42.4849ZM24.1991 45.7463L24.4111 45.7636L24.2577 45.6209L24.1991 45.7463ZM17.0111 38.9916L15.7964 45.7943L20.1764 42.4116C20.1977 42.3943 20.2217 42.3823 20.2471 42.3769L20.6084 42.2809L17.0111 38.9916ZM10.1537 38.4063C11.4311 41.2156 13.1804 43.7543 15.3591 45.9596L16.5991 39.0183L10.1537 38.4063ZM15.9484 46.1836L28.5084 49.5116L24.8911 46.2023L23.8817 46.1249C23.8164 46.1196 23.7577 46.0836 23.7244 46.0276C23.6911 45.9703 23.6871 45.9009 23.7137 45.8409L23.9457 45.3356L20.9604 42.6049L20.3884 42.7543L15.9484 46.1836ZM29.2457 50.1143C29.2297 50.1143 29.2111 50.1129 29.1951 50.1076L15.2964 46.4263C15.2631 46.4183 15.2311 46.3996 15.2071 46.3743C12.8497 44.0223 10.9804 41.2903 9.64707 38.2543C9.61774 38.1903 9.62574 38.1143 9.66707 38.0556C9.7084 37.9983 9.7804 37.9663 9.8484 37.9743L16.6204 38.6169L10.9937 32.9036L7.45374 27.7089C7.40307 27.6329 7.4084 27.5343 7.46574 27.4649L12.4991 21.5076L14.1444 14.7196C14.1617 14.6463 14.2204 14.5889 14.2951 14.5716L19.8457 13.3276L28.3831 7.99693L28.5964 8.33692L20.0297 13.6863C20.0111 13.6983 19.9897 13.7063 19.9671 13.7116L14.5044 14.9369L12.8777 21.6489C12.8711 21.6783 12.8564 21.7063 12.8364 21.7303L7.87107 27.6076L11.3017 32.6503L17.0564 38.4889L21.0697 42.1609L25.9897 40.8783L26.9644 38.7529C26.9937 38.6863 27.0577 38.6423 27.1297 38.6356C27.2084 38.6316 27.2724 38.6636 27.3137 38.7236L28.3511 40.2623L34.5617 38.6423C34.6471 38.6183 34.7351 38.6556 34.7817 38.7276C34.8284 38.8009 34.8231 38.8956 34.7671 38.9623L30.6751 43.9609C30.6351 44.0089 30.5817 44.0449 30.5111 44.0343C30.4471 44.0316 30.3897 43.9983 30.3537 43.9449L28.1777 40.7209L26.2751 41.2169L24.4324 45.2383L25.0591 45.8116L34.5937 46.5329C34.6777 46.5396 34.7471 46.5956 34.7711 46.6743C34.7951 46.7543 34.7671 46.8396 34.7017 46.8916L30.6017 50.0729L30.3551 49.7569L34.0444 46.8929L25.5391 46.2503L29.3817 49.7676C29.4497 49.8289 29.4671 49.9303 29.4231 50.0103C29.3857 50.0769 29.3191 50.1143 29.2457 50.1143Z" fill="white"/>
<path d="M13.0696 21.3177L14.2389 26.8004L20.2882 24.5071L18.1269 19.6124L15.0722 19.1244L13.0696 21.3177ZM16.8109 31.9031L7.53755 27.7791C7.46555 27.7457 7.41888 27.6751 7.41888 27.5951C7.41888 24.2657 8.02688 21.0177 9.22822 17.9457C9.26155 17.8577 9.35088 17.8044 9.44555 17.8204L14.9216 18.6937L19.7749 13.3804C19.8362 13.3124 19.9349 13.2951 20.0162 13.3377L24.1802 15.5217L22.1936 8.50574L14.4669 14.9217C14.4016 14.9764 14.3082 14.9831 14.2349 14.9391C14.1616 14.8951 14.1256 14.8084 14.1429 14.7244L15.3762 9.03108L15.7682 9.11641L14.6576 14.2404L22.1749 8.00041C22.2269 7.95641 22.2976 7.94174 22.3629 7.96174C22.4282 7.98307 22.4776 8.03374 22.4962 8.10041L24.6936 15.8631C24.7149 15.9404 24.6896 16.0217 24.6269 16.0724C24.5656 16.1231 24.4776 16.1324 24.4069 16.0951L19.9669 13.7644L15.3962 18.7697L18.2989 19.2337C18.3656 19.2431 18.4229 19.2884 18.4509 19.3497L20.7416 24.5377C20.7642 24.5884 20.7642 24.6457 20.7429 24.6964C20.7216 24.7471 20.6802 24.7884 20.6282 24.8071L14.1629 27.2591C14.1082 27.2804 14.0469 27.2764 13.9962 27.2484C13.9456 27.2204 13.9082 27.1711 13.8962 27.1137L12.6549 21.2991C12.6416 21.2364 12.6602 21.1711 12.7042 21.1231L14.5976 19.0484L9.54288 18.2417C8.41488 21.1831 7.83622 24.2857 7.82022 27.4644L16.9736 31.5377L16.8109 31.9031Z" fill="white"/>
<path d="M49.8561 25.4988C49.8295 25.4988 49.8028 25.4934 49.7775 25.4828L44.3161 23.1654L44.4721 22.7974L49.7015 25.0148L52.2695 9.93478L43.9055 22.6881C43.8575 22.7601 43.7695 22.7934 43.6841 22.7708C43.6001 22.7481 43.5401 22.6734 43.5375 22.5854L42.8961 8.69345L34.8535 16.0708L34.5828 15.7748L42.9401 8.10945C42.9975 8.05611 43.0815 8.04145 43.1535 8.07211C43.2241 8.10011 43.2735 8.16945 43.2761 8.24811L43.9095 21.9494L52.4601 8.91211C52.5121 8.83211 52.6135 8.80011 52.7015 8.83478C52.7895 8.86945 52.8415 8.96278 52.8268 9.05611L50.0535 25.3321C50.0441 25.3921 50.0068 25.4454 49.9521 25.4734C49.9228 25.4908 49.8895 25.4988 49.8561 25.4988Z" fill="white"/>
<path d="M27.4603 31.0366L27.1576 30.774L34.391 22.446L40.5336 16.3166L37.7243 8.14996C37.6963 8.06996 37.7216 7.98196 37.7883 7.92862L43.5696 3.28463C40.5403 2.08463 37.3416 1.47129 34.0523 1.45929L28.647 8.29129C28.6083 8.34062 28.551 8.36862 28.4883 8.36862L22.4336 8.35529L20.107 13.5966L19.739 13.434L22.1203 8.07262C22.1523 8.00062 22.2243 7.95396 22.303 7.95396L28.3923 7.96596L33.799 1.13396C33.8363 1.08596 33.895 1.05796 33.9563 1.05796C37.4456 1.05796 40.8376 1.72462 44.039 3.04062C44.1043 3.06596 44.151 3.12596 44.1603 3.19662C44.171 3.26729 44.143 3.33796 44.087 3.38196L38.1496 8.15396L40.9536 16.3046C40.979 16.3766 40.9603 16.4566 40.9056 16.5113L34.6843 22.7193L27.4603 31.0366Z" fill="white"/>
<path d="M54.7344 22.9949H54.7304L43.7331 22.7775C43.6918 22.7775 43.6518 22.7629 43.6184 22.7389L34.5984 16.0829L34.8371 15.7602L43.8051 22.3775L54.4491 22.5882L51.8904 15.3469L47.9691 20.4015C47.9211 20.4642 47.8411 20.4935 47.7638 20.4722C47.6864 20.4549 47.6278 20.3922 47.6144 20.3149L46.3251 13.3389L42.9104 8.36954C42.8664 8.30554 42.8638 8.22287 42.9024 8.15487C42.9438 8.08821 43.0198 8.04954 43.0958 8.05754L52.8624 8.99621L52.8238 9.39621L43.4851 8.49754L46.6798 13.1469C46.6958 13.1709 46.7064 13.1962 46.7118 13.2242L47.9278 19.8002L51.7984 14.8095C51.8438 14.7522 51.9158 14.7242 51.9891 14.7349C52.0611 14.7469 52.1224 14.7975 52.1464 14.8655L54.9238 22.7282C54.9451 22.7895 54.9358 22.8575 54.8971 22.9122C54.8598 22.9642 54.7984 22.9949 54.7344 22.9949Z" fill="white"/>
<path d="M54.9063 22.8984L54.5623 22.6918L57.9649 17.0411L58.3103 17.2491L54.9063 22.8984Z" fill="white"/>
<path d="M57.9537 17.2241C56.6497 14.2121 54.8111 11.5001 52.4857 9.16279L52.771 8.88012C55.131 11.2521 56.999 14.0068 58.3217 17.0655L57.9537 17.2241Z" fill="white"/>
<path d="M34.9108 46.7005H43.4975V38.2525H48.4988V31.2779H43.4975V23.0512H34.9135L34.9681 31.2779H26.7135L37.5521 8.43119H28.7108L17.2895 31.8779V38.2525H34.9108V46.7005ZM44.2495 47.4539H34.1588V39.0059H16.5375V31.7045L16.5748 31.6259L28.2401 7.67786H38.7428L27.9041 30.5245H34.2121L34.1561 22.2979H44.2495V30.5245H49.2521V39.0059H44.2495V47.4539Z" fill="white"/>
<path d="M29.7213 8.16815C29.7213 8.84815 29.1693 9.40015 28.4893 9.40015C27.808 9.40015 27.256 8.84815 27.256 8.16815C27.256 7.48681 27.808 6.93481 28.4893 6.93481C29.1693 6.93481 29.7213 7.48681 29.7213 8.16815Z" fill="white"/>
<path d="M25.7331 15.9181C25.7331 16.5981 25.1811 17.1501 24.5011 17.1501C23.8197 17.1501 23.2677 16.5981 23.2677 15.9181C23.2677 15.2368 23.8197 14.6848 24.5011 14.6848C25.1811 14.6848 25.7331 15.2368 25.7331 15.9181Z" fill="white"/>
<path d="M21.1556 13.5158C21.1556 14.1971 20.6036 14.7478 19.9236 14.7478C19.2422 14.7478 18.6902 14.1971 18.6902 13.5158C18.6902 12.8345 19.2422 12.2825 19.9236 12.2825C20.6036 12.2825 21.1556 12.8345 21.1556 13.5158Z" fill="white"/>
<path d="M16.8046 9.0744C16.8046 9.7544 16.2526 10.3064 15.5726 10.3064C14.8913 10.3064 14.3393 9.7544 14.3393 9.0744C14.3393 8.39306 14.8913 7.84106 15.5726 7.84106C16.2526 7.84106 16.8046 8.39306 16.8046 9.0744Z" fill="white"/>
<path d="M15.5716 14.7672C15.5716 15.4485 15.0196 16.0005 14.3396 16.0005C13.6583 16.0005 13.1063 15.4485 13.1063 14.7672C13.1063 14.0858 13.6583 13.5352 14.3396 13.5352C15.0196 13.5352 15.5716 14.0858 15.5716 14.7672Z" fill="white"/>
<path d="M10.9583 18.0483C10.9583 18.7283 10.4063 19.2803 9.72625 19.2803C9.04492 19.2803 8.49292 18.7283 8.49292 18.0483C8.49292 17.3669 9.04492 16.8149 9.72625 16.8149C10.4063 16.8149 10.9583 17.3669 10.9583 18.0483Z" fill="white"/>
<path d="M19.4993 19.4312C19.4993 20.1126 18.9473 20.6646 18.2673 20.6646C17.586 20.6646 17.034 20.1126 17.034 19.4312C17.034 18.7512 17.586 18.1992 18.2673 18.1992C18.9473 18.1992 19.4993 18.7512 19.4993 19.4312Z" fill="white"/>
<path d="M21.7904 24.6201C21.7904 25.3001 21.2384 25.8521 20.5584 25.8521C19.8771 25.8521 19.3251 25.3001 19.3251 24.6201C19.3251 23.9387 19.8771 23.3867 20.5584 23.3867C21.2384 23.3867 21.7904 23.9387 21.7904 24.6201Z" fill="white"/>
<path d="M14.0091 21.5912C14.0091 22.2726 13.4571 22.8232 12.7771 22.8232C12.0957 22.8232 11.5437 22.2726 11.5437 21.5912C11.5437 20.9099 12.0957 20.3579 12.7771 20.3579C13.4571 20.3579 14.0091 20.9099 14.0091 21.5912Z" fill="white"/>
<path d="M9.10547 27.642C9.10547 28.3234 8.55347 28.874 7.87347 28.874C7.19214 28.874 6.64014 28.3234 6.64014 27.642C6.64014 26.9607 7.19214 26.4087 7.87347 26.4087C8.55347 26.4087 9.10547 26.9607 9.10547 27.642Z" fill="white"/>
<path d="M15.325 27.0718C15.325 27.7532 14.773 28.3052 14.093 28.3052C13.4116 28.3052 12.8596 27.7532 12.8596 27.0718C12.8596 26.3918 13.4116 25.8398 14.093 25.8398C14.773 25.8398 15.325 26.3918 15.325 27.0718Z" fill="white"/>
<path d="M18.1244 31.7203C18.1244 32.4016 17.5724 32.9536 16.8924 32.9536C16.2111 32.9536 15.6591 32.4016 15.6591 31.7203C15.6591 31.0403 16.2111 30.4883 16.8924 30.4883C17.5724 30.4883 18.1244 31.0403 18.1244 31.7203Z" fill="white"/>
<path d="M12.3685 32.7631C12.3685 33.4445 11.8165 33.9951 11.1365 33.9951C10.4552 33.9951 9.9032 33.4445 9.9032 32.7631C9.9032 32.0818 10.4552 31.5311 11.1365 31.5311C11.8165 31.5311 12.3685 32.0818 12.3685 32.7631Z" fill="white"/>
<path d="M11.2805 38.2475C11.2805 38.9275 10.7285 39.4795 10.0485 39.4795C9.36719 39.4795 8.81519 38.9275 8.81519 38.2475C8.81519 37.5662 9.36719 37.0142 10.0485 37.0142C10.7285 37.0142 11.2805 37.5662 11.2805 38.2475Z" fill="white"/>
<path d="M21.4747 42.9377C21.272 43.587 20.58 43.9497 19.9307 43.7457C19.28 43.543 18.9187 42.8523 19.1227 42.2017C19.3253 41.5523 20.016 41.1897 20.6667 41.3937C21.316 41.5963 21.6773 42.2883 21.4747 42.9377Z" fill="white"/>
<path d="M18.067 38.8387C18.067 39.52 17.515 40.072 16.835 40.072C16.1537 40.072 15.6017 39.52 15.6017 38.8387C15.6017 38.1587 16.1537 37.6067 16.835 37.6067C17.515 37.6067 18.067 38.1587 18.067 38.8387Z" fill="white"/>
<path d="M16.7396 46.2711C16.7396 46.9524 16.1876 47.5044 15.5076 47.5044C14.8262 47.5044 14.2742 46.9524 14.2742 46.2711C14.2742 45.5911 14.8262 45.0391 15.5076 45.0391C16.1876 45.0391 16.7396 45.5911 16.7396 46.2711Z" fill="white"/>
<path d="M25.4499 46.1161C25.4499 46.7961 24.8979 47.3481 24.2179 47.3481C23.5365 47.3481 22.9845 46.7961 22.9845 46.1161C22.9845 45.4348 23.5365 44.8828 24.2179 44.8828C24.8979 44.8828 25.4499 45.4348 25.4499 46.1161Z" fill="white"/>
<path d="M28.3789 38.8361C28.3789 39.5175 27.8269 40.0681 27.1469 40.0681C26.4656 40.0681 25.9136 39.5175 25.9136 38.8361C25.9136 38.1548 26.4656 37.6028 27.1469 37.6028C27.8269 37.6028 28.3789 38.1548 28.3789 38.8361Z" fill="white"/>
<path d="M35.8444 38.8361C35.8444 39.5175 35.2924 40.0681 34.6124 40.0681C33.9311 40.0681 33.3791 39.5175 33.3791 38.8361C33.3791 38.1548 33.9311 37.6028 34.6124 37.6028C35.2924 37.6028 35.8444 38.1548 35.8444 38.8361Z" fill="white"/>
<path d="M31.7527 43.8336C31.7527 44.5149 31.2007 45.0669 30.5207 45.0669C29.8394 45.0669 29.2874 44.5149 29.2874 43.8336C29.2874 43.1536 29.8394 42.6016 30.5207 42.6016C31.2007 42.6016 31.7527 43.1536 31.7527 43.8336Z" fill="white"/>
<path d="M31.7109 49.9141C31.7109 50.5955 31.1589 51.1475 30.4789 51.1475C29.7976 51.1475 29.2456 50.5955 29.2456 49.9141C29.2456 49.2341 29.7976 48.6821 30.4789 48.6821C31.1589 48.6821 31.7109 49.2341 31.7109 49.9141Z" fill="white"/>
<path d="M25.791 52.1746C25.791 52.856 25.239 53.408 24.559 53.408C23.8777 53.408 23.3257 52.856 23.3257 52.1746C23.3257 51.4933 23.8777 50.9426 24.559 50.9426C25.239 50.9426 25.791 51.4933 25.791 52.1746Z" fill="white"/>
<path d="M35.8112 46.7333C35.8112 47.4147 35.2592 47.9653 34.5792 47.9653C33.8979 47.9653 33.3472 47.4147 33.3472 46.7333C33.3472 46.052 33.8979 45.5 34.5792 45.5C35.2592 45.5 35.8112 46.052 35.8112 46.7333Z" fill="white"/>
<path d="M35.4467 53.9664C35.4467 54.6477 34.8947 55.1997 34.2147 55.1997C33.5333 55.1997 32.9813 54.6477 32.9813 53.9664C32.9813 53.285 33.5333 52.7344 34.2147 52.7344C34.8947 52.7344 35.4467 53.285 35.4467 53.9664Z" fill="white"/>
<path d="M39.9024 50.2619C39.9024 50.9432 39.3504 51.4939 38.6704 51.4939C37.989 51.4939 37.437 50.9432 37.437 50.2619C37.437 49.5806 37.989 49.0286 38.6704 49.0286C39.3504 49.0286 39.9024 49.5806 39.9024 50.2619Z" fill="white"/>
<path d="M45.9316 51.7762C45.9316 52.4575 45.3796 53.0095 44.6996 53.0095C44.0182 53.0095 43.4662 52.4575 43.4662 51.7762C43.4662 51.0962 44.0182 50.5442 44.6996 50.5442C45.3796 50.5442 45.9316 51.0962 45.9316 51.7762Z" fill="white"/>
<path d="M45.0027 46.7657C45.0027 47.447 44.4507 47.999 43.7707 47.999C43.0894 47.999 42.5374 47.447 42.5374 46.7657C42.5374 46.0857 43.0894 45.5337 43.7707 45.5337C44.4507 45.5337 45.0027 46.0857 45.0027 46.7657Z" fill="white"/>
<path d="M44.9695 38.8687C44.9695 39.5501 44.4175 40.1021 43.7375 40.1021C43.0562 40.1021 42.5042 39.5501 42.5042 38.8687C42.5042 38.1887 43.0562 37.6367 43.7375 37.6367C44.4175 37.6367 44.9695 38.1887 44.9695 38.8687Z" fill="white"/>
<path d="M50.0795 38.8687C50.0795 39.5501 49.5275 40.1021 48.8475 40.1021C48.1661 40.1021 47.6141 39.5501 47.6141 38.8687C47.6141 38.1887 48.1661 37.6367 48.8475 37.6367C49.5275 37.6367 50.0795 38.1887 50.0795 38.8687Z" fill="white"/>
<path d="M49.899 44.8465C49.899 45.5278 49.347 46.0798 48.667 46.0798C47.9857 46.0798 47.4337 45.5278 47.4337 44.8465C47.4337 44.1665 47.9857 43.6145 48.667 43.6145C49.347 43.6145 49.899 44.1665 49.899 44.8465Z" fill="white"/>
<path d="M54.028 46.2684C54.028 46.9497 53.476 47.5017 52.796 47.5017C52.1147 47.5017 51.5627 46.9497 51.5627 46.2684C51.5627 45.587 52.1147 45.0364 52.796 45.0364C53.476 45.0364 54.028 45.587 54.028 46.2684Z" fill="white"/>
<path d="M59.9011 37.2762C59.9011 37.9575 59.3491 38.5095 58.6691 38.5095C57.9877 38.5095 57.4357 37.9575 57.4357 37.2762C57.4357 36.5949 57.9877 36.0442 58.6691 36.0442C59.3491 36.0442 59.9011 36.5949 59.9011 37.2762Z" fill="white"/>
<path d="M55.2442 35.961C55.2442 36.6423 54.6921 37.1943 54.0121 37.1943C53.3308 37.1943 52.7802 36.6423 52.7802 35.961C52.7802 35.2797 53.3308 34.729 54.0121 34.729C54.6921 34.729 55.2442 35.2797 55.2442 35.961Z" fill="white"/>
<path d="M45.0027 30.9051C45.0027 31.5864 44.4507 32.1384 43.7707 32.1384C43.0894 32.1384 42.5374 31.5864 42.5374 30.9051C42.5374 30.2251 43.0894 29.6731 43.7707 29.6731C44.4507 29.6731 45.0027 30.2251 45.0027 30.9051Z" fill="white"/>
<path d="M35.8092 30.9051C35.8092 31.5864 35.2572 32.1384 34.5772 32.1384C33.8959 32.1384 33.3439 31.5864 33.3439 30.9051C33.3439 30.2251 33.8959 29.6731 34.5772 29.6731C35.2572 29.6731 35.8092 30.2251 35.8092 30.9051Z" fill="white"/>
<path d="M28.5416 30.9051C28.5416 31.5864 27.9896 32.1384 27.3096 32.1384C26.6282 32.1384 26.0762 31.5864 26.0762 30.9051C26.0762 30.2251 26.6282 29.6731 27.3096 29.6731C27.9896 29.6731 28.5416 30.2251 28.5416 30.9051Z" fill="white"/>
<path d="M50.1127 30.9051C50.1127 31.5864 49.5607 32.1384 48.8807 32.1384C48.1993 32.1384 47.6473 31.5864 47.6473 30.9051C47.6473 30.2251 48.1993 29.6731 48.8807 29.6731C49.5607 29.6731 50.1127 30.2251 50.1127 30.9051Z" fill="white"/>
<path d="M57.4661 29.4365C57.4661 30.1165 56.9141 30.6685 56.2341 30.6685C55.5528 30.6685 55.0008 30.1165 55.0008 29.4365C55.0008 28.7551 55.5528 28.2031 56.2341 28.2031C56.9141 28.2031 57.4661 28.7551 57.4661 29.4365Z" fill="white"/>
<path d="M61.6927 27.6539C61.6927 28.3352 61.1407 28.8872 60.4607 28.8872C59.7793 28.8872 59.2273 28.3352 59.2273 27.6539C59.2273 26.9725 59.7793 26.4219 60.4607 26.4219C61.1407 26.4219 61.6927 26.9725 61.6927 27.6539Z" fill="white"/>
<path d="M51.0885 25.2984C51.0885 25.9797 50.5365 26.5317 49.8565 26.5317C49.1752 26.5317 48.6232 25.9797 48.6232 25.2984C48.6232 24.6171 49.1752 24.0664 49.8565 24.0664C50.5365 24.0664 51.0885 24.6171 51.0885 25.2984Z" fill="white"/>
<path d="M55.9668 22.7945C55.9668 23.4758 55.4148 24.0278 54.7348 24.0278C54.0535 24.0278 53.5015 23.4758 53.5015 22.7945C53.5015 22.1132 54.0535 21.5625 54.7348 21.5625C55.4148 21.5625 55.9668 22.1132 55.9668 22.7945Z" fill="white"/>
<path d="M59.5358 17.1357C59.5358 17.817 58.9838 18.3677 58.3038 18.3677C57.6225 18.3677 57.0705 17.817 57.0705 17.1357C57.0705 16.4543 57.6225 15.9023 58.3038 15.9023C58.9838 15.9023 59.5358 16.4543 59.5358 17.1357Z" fill="white"/>
<path d="M44.9695 22.577C44.9695 23.2583 44.4175 23.8103 43.7375 23.8103C43.0562 23.8103 42.5042 23.2583 42.5042 22.577C42.5042 21.8956 43.0562 21.345 43.7375 21.345C44.4175 21.345 44.9695 21.8956 44.9695 22.577Z" fill="white"/>
<path d="M35.7753 22.577C35.7753 23.2583 35.2233 23.8103 34.5433 23.8103C33.862 23.8103 33.31 23.2583 33.31 22.577C33.31 21.8956 33.862 21.345 34.5433 21.345C35.2233 21.345 35.7753 21.8956 35.7753 22.577Z" fill="white"/>
<path d="M35.9505 15.9219C35.9505 16.6033 35.3985 17.1553 34.7185 17.1553C34.0372 17.1553 33.4852 16.6033 33.4852 15.9219C33.4852 15.2406 34.0372 14.6899 34.7185 14.6899C35.3985 14.6899 35.9505 15.2406 35.9505 15.9219Z" fill="white"/>
<path d="M39.1465 8.08478C39.1465 8.76612 38.5945 9.31812 37.9145 9.31812C37.2332 9.31812 36.6812 8.76612 36.6812 8.08478C36.6812 7.40478 37.2332 6.85278 37.9145 6.85278C38.5945 6.85278 39.1465 7.40478 39.1465 8.08478Z" fill="white"/>
<path d="M34.7656 5.20843C34.7656 5.88843 34.2136 6.44043 33.5336 6.44043C32.8522 6.44043 32.3002 5.88843 32.3002 5.20843C32.3002 4.5271 32.8522 3.9751 33.5336 3.9751C34.2136 3.9751 34.7656 4.5271 34.7656 5.20843Z" fill="white"/>
<path d="M45.0573 3.18122C45.0573 3.86255 44.5053 4.41455 43.8253 4.41455C43.144 4.41455 42.592 3.86255 42.592 3.18122C42.592 2.50122 43.144 1.94922 43.8253 1.94922C44.5053 1.94922 45.0573 2.50122 45.0573 3.18122Z" fill="white"/>
<path d="M49.3907 20.3035C49.3907 20.9849 48.8387 21.5369 48.1587 21.5369C47.4773 21.5369 46.9253 20.9849 46.9253 20.3035C46.9253 19.6235 47.4773 19.0715 48.1587 19.0715C48.8387 19.0715 49.3907 19.6235 49.3907 20.3035Z" fill="white"/>
<path d="M53.1895 14.9338C53.1895 15.6138 52.6375 16.1658 51.9575 16.1658C51.2761 16.1658 50.7241 15.6138 50.7241 14.9338C50.7241 14.2524 51.2761 13.7004 51.9575 13.7004C52.6375 13.7004 53.1895 14.2524 53.1895 14.9338Z" fill="white"/>
<path d="M54.028 9.03913C54.028 9.72046 53.476 10.2725 52.796 10.2725C52.1147 10.2725 51.5627 9.72046 51.5627 9.03913C51.5627 8.3578 52.1147 7.80713 52.796 7.80713C53.476 7.80713 54.028 8.3578 54.028 9.03913Z" fill="white"/>
<path d="M47.7468 13.2606C47.7468 13.9419 47.1948 14.4939 46.5148 14.4939C45.8334 14.4939 45.2828 13.9419 45.2828 13.2606C45.2828 12.5792 45.8334 12.0286 46.5148 12.0286C47.1948 12.0286 47.7468 12.5792 47.7468 13.2606Z" fill="white"/>
<path d="M41.9968 16.3701C41.9968 17.0514 41.4448 17.6021 40.7648 17.6021C40.0834 17.6021 39.5314 17.0514 39.5314 16.3701C39.5314 15.6887 40.0834 15.1367 40.7648 15.1367C41.4448 15.1367 41.9968 15.6887 41.9968 16.3701Z" fill="white"/>
<path d="M44.3085 8.25666C44.3085 8.93799 43.7565 9.48999 43.0765 9.48999C42.3952 9.48999 41.8445 8.93799 41.8445 8.25666C41.8445 7.57533 42.3952 7.02466 43.0765 7.02466C43.7565 7.02466 44.3085 7.57533 44.3085 8.25666Z" fill="white"/>
<path d="M35.3932 1.36737C35.3932 2.0487 34.8412 2.59937 34.1612 2.59937C33.4799 2.59937 32.9279 2.0487 32.9279 1.36737C32.9279 0.686033 33.4799 0.134033 34.1612 0.134033C34.8412 0.134033 35.3932 0.686033 35.3932 1.36737Z" fill="white"/>
<path d="M24.8808 3.56536C24.8808 4.24536 24.3288 4.79736 23.6488 4.79736C22.9675 4.79736 22.4155 4.24536 22.4155 3.56536C22.4155 2.88403 22.9675 2.33203 23.6488 2.33203C24.3288 2.33203 24.8808 2.88403 24.8808 3.56536Z" fill="white"/>
<path d="M23.5352 8.15388C23.5352 8.83521 22.9832 9.38721 22.3032 9.38721C21.6219 9.38721 21.0712 8.83521 21.0712 8.15388C21.0712 7.47388 21.6219 6.92188 22.3032 6.92188C22.9832 6.92188 23.5352 7.47388 23.5352 8.15388Z" fill="white"/>
<path d="M52.4857 9.16279C50.0111 6.67479 47.1177 4.74018 43.8857 3.41218L44.039 3.04062C47.319 4.38996 50.2577 6.35479 52.771 8.88012L52.4857 9.16279Z" fill="white"/>
<path d="M24.4993 52.6628C21.106 51.1202 18.026 49.0922 15.3447 46.6362L15.6167 46.3415C18.266 48.7682 21.31 50.7722 24.6647 52.2975L24.4993 52.6628Z" fill="white"/>
<path d="M64.1387 46.8787H55.9653V19.0909H64.1387V46.8787Z" fill="white"/>
<path d="M64.6666 11.4973C64.6666 12.7986 64.288 13.844 63.5333 14.636C62.7773 15.4253 61.6253 15.8213 60.08 15.8213C57.02 15.8213 55.492 14.38 55.492 11.4973C55.492 8.64929 57.02 7.22662 60.08 7.22662C63.1373 7.22662 64.6666 8.64929 64.6666 11.4973Z" fill="white"/>
<path d="M0.914246 40.182V8.33268H9.14091V37.282" fill="white"/>
</svg>
